<?xml version="1.0" standalone="no"?><!DOCTYPE svg PUBLIC "-//W3C//DTD SVG 1.1//EN" "http://www.w3.org/Graphics/SVG/1.1/DTD/svg11.dtd"><svg t="1490165024516" class="icon" style="" viewBox="0 0 1024 1024" version="1.1" xmlns="http://www.w3.org/2000/svg" p-id="22346" xmlns:xlink="http://www.w3.org/1999/xlink" width="25" height="25"><defs><style type="text/css"></style></defs><path d="M514.916483 911.074552c-11.858818 0.001128-22.928327-5.538701-31.271333-15.623827l-95.287753-102.467091L227.510686 792.983634c-103.561977 0-187.815177-84.254328-187.815177-187.815177L39.695509 187.815178c0-103.561977 84.2532-187.815177 187.815177-187.815177l568.979722 0c103.561977 0 187.814049 84.254328 187.814049 187.815177l0 417.352151c0 103.561977-84.2532 187.815177-187.814049 187.815177L643.967534 792.982506l-96.037598 103.033139C545.519158 898.583158 532.877795 911.072297 514.916483 911.074552zM227.510686 45.103427c-78.691948 0-142.711751 64.020931-142.711751 142.711751l0 417.352151c0 78.691948 64.019803 142.711751 142.711751 142.711751l180.494891 0 108.046385 116.187553 108.297837-116.187553 172.140609 0c78.69082 0 142.710623-64.019803 142.710623-142.711751L939.201031 187.815178c0-78.691948-64.019803-142.711751-142.710623-142.711751L227.510686 45.103427z" p-id="22347" fill="#cdcdcd"></path><path d="M292.018734 396.491817m-59.24335 0a52.54 52.54 0 1 0 118.486701 0 52.54 52.54 0 1 0-118.486701 0Z" p-id="22348" fill="#cdcdcd"></path><path d="M510.456882 396.491817m-59.24335 0a52.54 52.54 0 1 0 118.486701 0 52.54 52.54 0 1 0-118.486701 0Z" p-id="22349" fill="#cdcdcd"></path><path d="M737.112875 396.491817m-59.24335 0a52.54 52.54 0 1 0 118.486701 0 52.54 52.54 0 1 0-118.486701 0Z" p-id="22350" fill="#cdcdcd"></path></svg>